<svg width="70" height="17" viewBox="0 0 70 17" fill="none" xmlns="http://www.w3.org/2000/svg">
<g filter="url(#filter0_d_2328_23)">
<path d="M8.21789 0.92C8.87122 0.92 9.43122 1.04 9.89789 1.28C10.3646 1.51333 10.7212 1.84333 10.9679 2.27C11.2146 2.69 11.3379 3.17667 11.3379 3.73C11.3379 3.95 11.3179 4.18667 11.2779 4.44C11.1579 5.11333 10.8979 5.72 10.4979 6.26C10.1046 6.8 9.60122 7.22667 8.98789 7.54C8.38122 7.84667 7.70789 8 6.96789 8H4.01789L5.26789 0.92H8.21789ZM7.11789 6.02C7.61789 6.02 8.03789 5.88333 8.37789 5.61C8.72456 5.33667 8.94122 4.94667 9.02789 4.44C9.04789 4.30667 9.05789 4.18333 9.05789 4.07C9.05789 3.67667 8.93456 3.37667 8.68789 3.17C8.44789 2.96333 8.11122 2.86 7.67789 2.86H7.14789L6.58789 6.02H7.11789ZM14.7495 8.07C14.1495 8.07 13.6229 7.94667 13.1695 7.7C12.7162 7.45333 12.3662 7.10667 12.1195 6.66C11.8729 6.20667 11.7495 5.69 11.7495 5.11C11.7495 4.26333 11.9229 3.51667 12.2695 2.87C12.6229 2.21667 13.1129 1.71 13.7395 1.35C14.3729 0.983333 15.0995 0.8 15.9195 0.8C16.5329 0.8 17.0662 0.923333 17.5195 1.17C17.9795 1.41 18.3329 1.75333 18.5795 2.2C18.8262 2.64 18.9495 3.15 18.9495 3.73C18.9495 4.57 18.7729 5.32 18.4195 5.98C18.0729 6.64 17.5795 7.15333 16.9395 7.52C16.3062 7.88667 15.5762 8.07 14.7495 8.07ZM15.0895 6C15.4362 6 15.7362 5.91 15.9895 5.73C16.2495 5.54333 16.4462 5.3 16.5795 5C16.7129 4.69333 16.7795 4.36333 16.7795 4.01C16.7795 3.64333 16.6795 3.36 16.4795 3.16C16.2862 2.95333 16.0062 2.85 15.6395 2.85C15.2929 2.85 14.9895 2.94 14.7295 3.12C14.4695 3.3 14.2695 3.54333 14.1295 3.85C13.9962 4.15 13.9295 4.47667 13.9295 4.83C13.9295 5.19667 14.0262 5.48333 14.2195 5.69C14.4195 5.89667 14.7095 6 15.0895 6ZM25.6004 3.35C25.5204 3.79667 25.3471 4.20333 25.0804 4.57C24.8137 4.93 24.4571 5.21667 24.0104 5.43C23.5704 5.64333 23.0637 5.75 22.4904 5.75H21.6104L21.2104 8H18.9904L20.2404 0.92H23.3404C24.0937 0.92 24.6671 1.09 25.0604 1.43C25.4537 1.77 25.6504 2.23667 25.6504 2.83C25.6504 2.97667 25.6337 3.15 25.6004 3.35ZM22.5504 4C23.0037 4 23.2704 3.78333 23.3504 3.35C23.3637 3.27 23.3704 3.21333 23.3704 3.18C23.3704 2.86 23.1737 2.7 22.7804 2.7H22.1504L21.9204 4H22.5504ZM30.0445 6.93H27.6845L27.1445 8H24.8145L28.6545 0.92H31.2145L32.5445 8H30.2045L30.0445 6.93ZM29.8045 5.26L29.5145 3.29L28.5245 5.26H29.8045ZM42.6389 0.92L41.3889 8H39.1789L39.7989 4.48L38.0889 8H36.1889L35.7189 4.45L35.0989 8H32.8789L34.1289 0.92H36.8489L37.6589 5.18L39.9289 0.92H42.6389ZM45.6906 0.92L44.4406 8H42.2206L43.4706 0.92H45.6906ZM52.0633 8H49.8433L48.1233 4.44L47.4933 8H45.2733L46.5233 0.92H48.7433L50.4533 4.54L51.0933 0.92H53.3133L52.0633 8ZM56.0563 2.68L55.9063 3.56H58.1063L57.8063 5.23H55.6063L55.4263 6.23H57.9263L57.6163 8H52.8963L54.1463 0.92H58.8663L58.5563 2.68H56.0563ZM62.8329 0.92C63.5929 0.92 64.1696 1.09 64.5629 1.43C64.9562 1.77 65.1529 2.22333 65.1529 2.79C65.1529 2.95667 65.1396 3.10667 65.1129 3.24C65.0262 3.72 64.8196 4.14333 64.4929 4.51C64.1662 4.87 63.7429 5.13 63.2229 5.29L64.2829 8H61.8429L60.9529 5.46L60.5029 8H58.2829L59.5329 0.92H62.8329ZM61.2129 3.98H62.0929C62.3062 3.98 62.4729 3.93333 62.5929 3.84C62.7196 3.74 62.8029 3.58667 62.8429 3.38C62.8496 3.34667 62.8529 3.30333 62.8529 3.25C62.8529 3.10333 62.8062 2.99 62.7129 2.91C62.6196 2.82333 62.4829 2.78 62.3029 2.78H61.4229L61.2129 3.98Z" fill="#07F9A2"/>
</g>
<defs>
<filter id="filter0_d_2328_23" x="0.0180664" y="0.799999" width="69.1348" height="15.27" filterUnits="userSpaceOnUse" color-interpolation-filters="sRGB">
<feFlood flood-opacity="0" result="BackgroundImageFix"/>
<feColorMatrix in="SourceAlpha" type="matrix" values="0 0 0 0 0 0 0 0 0 0 0 0 0 0 0 0 0 0 127 0" result="hardAlpha"/>
<feOffset dy="4"/>
<feGaussianBlur stdDeviation="2"/>
<feComposite in2="hardAlpha" operator="out"/>
<feColorMatrix type="matrix" values="0 0 0 0 0 0 0 0 0 0 0 0 0 0 0 0 0 0 0.25 0"/>
<feBlend mode="normal" in2="BackgroundImageFix" result="effect1_dropShadow_2328_23"/>
<feBlend mode="normal" in="SourceGraphic" in2="effect1_dropShadow_2328_23" result="shape"/>
</filter>
</defs>
</svg>
